<mxfile host="app.diagrams.net" agent="Mozilla/5.0 (Windows NT 10.0; Win64; x64) AppleWebKit/537.36 (KHTML, like Gecko) Chrome/131.0.0.0 Safari/537.36 OPR/116.0.0.0" version="26.0.16">
  <diagram name="PÃ¡gina-1" id="i-jwNw1SPpHjOLNYtAvz">
    <mxGraphModel dx="1392" dy="753" grid="1" gridSize="10" guides="1" tooltips="1" connect="1" arrows="1" fold="1" page="1" pageScale="1" pageWidth="827" pageHeight="1169" math="0" shadow="0">
      <root>
        <mxCell id="0" />
        <mxCell id="1" parent="0" />
        <mxCell id="GnYL3kP9bwi64KfcIB3u-1" style="edgeStyle=orthogonalEdgeStyle;rounded=0;orthogonalLoop=1;jettySize=auto;html=1;entryX=0.5;entryY=0;entryDx=0;entryDy=0;" edge="1" parent="1" source="GnYL3kP9bwi64KfcIB3u-2" target="GnYL3kP9bwi64KfcIB3u-8">
          <mxGeometry relative="1" as="geometry" />
        </mxCell>
        <mxCell id="GnYL3kP9bwi64KfcIB3u-2" value="Funcionario" style="swimlane;fontStyle=1;align=center;verticalAlign=top;childLayout=stackLayout;horizontal=1;startSize=26;horizontalStack=0;resizeParent=1;resizeParentMax=0;resizeLast=0;collapsible=1;marginBottom=0;whiteSpace=wrap;html=1;fillColor=#e6d0de;strokeColor=#996185;gradientColor=#d5739d;rounded=1;" vertex="1" parent="1">
          <mxGeometry x="670" y="220" width="210" height="164" as="geometry" />
        </mxCell>
        <mxCell id="GnYL3kP9bwi64KfcIB3u-3" value="- id: int" style="text;strokeColor=#996185;fillColor=#e6d0de;align=left;verticalAlign=top;spacingLeft=4;spacingRight=4;overflow=hidden;rotatable=0;points=[[0,0.5],[1,0.5]];portConstraint=eastwest;whiteSpace=wrap;html=1;gradientColor=#d5739d;rounded=1;" vertex="1" parent="GnYL3kP9bwi64KfcIB3u-2">
          <mxGeometry y="26" width="210" height="26" as="geometry" />
        </mxCell>
        <mxCell id="GnYL3kP9bwi64KfcIB3u-5" value="- salario: double (privado)" style="text;strokeColor=#996185;fillColor=#e6d0de;align=left;verticalAlign=top;spacingLeft=4;spacingRight=4;overflow=hidden;rotatable=0;points=[[0,0.5],[1,0.5]];portConstraint=eastwest;whiteSpace=wrap;html=1;gradientColor=#d5739d;rounded=1;" vertex="1" parent="GnYL3kP9bwi64KfcIB3u-2">
          <mxGeometry y="52" width="210" height="26" as="geometry" />
        </mxCell>
        <mxCell id="GnYL3kP9bwi64KfcIB3u-4" value="- nome: String" style="text;strokeColor=#996185;fillColor=#e6d0de;align=left;verticalAlign=top;spacingLeft=4;spacingRight=4;overflow=hidden;rotatable=0;points=[[0,0.5],[1,0.5]];portConstraint=eastwest;whiteSpace=wrap;html=1;gradientColor=#d5739d;rounded=1;" vertex="1" parent="GnYL3kP9bwi64KfcIB3u-2">
          <mxGeometry y="78" width="210" height="26" as="geometry" />
        </mxCell>
        <mxCell id="GnYL3kP9bwi64KfcIB3u-6" value="" style="line;strokeWidth=1;fillColor=#e6d0de;align=left;verticalAlign=middle;spacingTop=-1;spacingLeft=3;spacingRight=3;rotatable=0;labelPosition=right;points=[];portConstraint=eastwest;strokeColor=#996185;gradientColor=#d5739d;rounded=1;" vertex="1" parent="GnYL3kP9bwi64KfcIB3u-2">
          <mxGeometry y="104" width="210" height="8" as="geometry" />
        </mxCell>
        <mxCell id="GnYL3kP9bwi64KfcIB3u-7" value="+ Funcionario(i, n, s)" style="text;strokeColor=#996185;fillColor=#e6d0de;align=left;verticalAlign=top;spacingLeft=4;spacingRight=4;overflow=hidden;rotatable=0;points=[[0,0.5],[1,0.5]];portConstraint=eastwest;whiteSpace=wrap;html=1;gradientColor=#d5739d;rounded=1;" vertex="1" parent="GnYL3kP9bwi64KfcIB3u-2">
          <mxGeometry y="112" width="210" height="26" as="geometry" />
        </mxCell>
        <mxCell id="GnYL3kP9bwi64KfcIB3u-14" value="+ aumentarSalario(percentual): void" style="text;strokeColor=#996185;fillColor=#e6d0de;align=left;verticalAlign=top;spacingLeft=4;spacingRight=4;overflow=hidden;rotatable=0;points=[[0,0.5],[1,0.5]];portConstraint=eastwest;whiteSpace=wrap;html=1;gradientColor=#d5739d;rounded=1;" vertex="1" parent="GnYL3kP9bwi64KfcIB3u-2">
          <mxGeometry y="138" width="210" height="26" as="geometry" />
        </mxCell>
        <mxCell id="GnYL3kP9bwi64KfcIB3u-8" value="Empresa" style="swimlane;fontStyle=1;align=center;verticalAlign=top;childLayout=stackLayout;horizontal=1;startSize=26;horizontalStack=0;resizeParent=1;resizeParentMax=0;resizeLast=0;collapsible=1;marginBottom=0;whiteSpace=wrap;html=1;fillColor=#e6d0de;strokeColor=#996185;gradientColor=#d5739d;rounded=1;" vertex="1" parent="1">
          <mxGeometry x="670" y="490" width="230" height="112" as="geometry" />
        </mxCell>
        <mxCell id="GnYL3kP9bwi64KfcIB3u-9" value="- funcionarios: ArrayList&amp;lt;Funcionario&amp;gt;" style="text;strokeColor=#996185;fillColor=#e6d0de;align=left;verticalAlign=top;spacingLeft=4;spacingRight=4;overflow=hidden;rotatable=0;points=[[0,0.5],[1,0.5]];portConstraint=eastwest;whiteSpace=wrap;html=1;gradientColor=#d5739d;rounded=1;" vertex="1" parent="GnYL3kP9bwi64KfcIB3u-8">
          <mxGeometry y="26" width="230" height="26" as="geometry" />
        </mxCell>
        <mxCell id="GnYL3kP9bwi64KfcIB3u-10" value="" style="line;strokeWidth=1;fillColor=#e6d0de;align=left;verticalAlign=middle;spacingTop=-1;spacingLeft=3;spacingRight=3;rotatable=0;labelPosition=right;points=[];portConstraint=eastwest;strokeColor=#996185;gradientColor=#d5739d;rounded=1;" vertex="1" parent="GnYL3kP9bwi64KfcIB3u-8">
          <mxGeometry y="52" width="230" height="8" as="geometry" />
        </mxCell>
        <mxCell id="GnYL3kP9bwi64KfcIB3u-11" value="+ adicionarFuncionario(i. n, s): void" style="text;strokeColor=#996185;fillColor=#e6d0de;align=left;verticalAlign=top;spacingLeft=4;spacingRight=4;overflow=hidden;rotatable=0;points=[[0,0.5],[1,0.5]];portConstraint=eastwest;whiteSpace=wrap;html=1;gradientColor=#d5739d;rounded=1;" vertex="1" parent="GnYL3kP9bwi64KfcIB3u-8">
          <mxGeometry y="60" width="230" height="26" as="geometry" />
        </mxCell>
        <mxCell id="GnYL3kP9bwi64KfcIB3u-12" value="+ listarFuncionarios(): void" style="text;strokeColor=#996185;fillColor=#e6d0de;align=left;verticalAlign=top;spacingLeft=4;spacingRight=4;overflow=hidden;rotatable=0;points=[[0,0.5],[1,0.5]];portConstraint=eastwest;whiteSpace=wrap;html=1;gradientColor=#d5739d;rounded=1;" vertex="1" parent="GnYL3kP9bwi64KfcIB3u-8">
          <mxGeometry y="86" width="230" height="26" as="geometry" />
        </mxCell>
      </root>
    </mxGraphModel>
  </diagram>
</mxfile>
